<?xml version="1.0" encoding="UTF-8" standalone="no"?>
<!-- Created with Inkscape (http://www.inkscape.org/) -->

<svg
   width="270mm"
   height="270mm"
   viewBox="0 0 270 270"
   version="1.1"
   id="svg1"
   inkscape:version="1.4 (e7c3feb, 2024-10-09)"
   sodipodi:docname="drawing.svg"
   xmlns:inkscape="http://www.inkscape.org/namespaces/inkscape"
   xmlns:sodipodi="http://sodipodi.sourceforge.net/DTD/sodipodi-0.dtd"
   xmlns:xlink="http://www.w3.org/1999/xlink"
   xmlns="http://www.w3.org/2000/svg"
   xmlns:svg="http://www.w3.org/2000/svg">
  <style
     id="style62">
.measure-arrow
{
}
.measure-label
{

}
.measure-line
{
}</style>
  <sodipodi:namedview
     id="namedview1"
     pagecolor="#505050"
     bordercolor="#ffffff"
     borderopacity="1"
     inkscape:showpageshadow="0"
     inkscape:pageopacity="0"
     inkscape:pagecheckerboard="1"
     inkscape:deskcolor="#505050"
     inkscape:document-units="mm"
     inkscape:zoom="2.0477431"
     inkscape:cx="415.57946"
     inkscape:cy="367.7219"
     inkscape:window-width="1920"
     inkscape:window-height="1043"
     inkscape:window-x="0"
     inkscape:window-y="0"
     inkscape:window-maximized="1"
     inkscape:current-layer="layer1" />
  <defs
     id="defs1">
    <inkscape:path-effect
       effect="copy_rotate"
       starting_point="0,0"
       origin="135.00003,211.08278"
       id="path-effect30"
       is_visible="true"
       lpeversion="1.2"
       lpesatellites="#path25 | #path26 | #path28 | #path31 | #path32 | #path33 | #path34 | #path35 | #path36 | #path37 | #path38 | #path39"
       method="normal"
       num_copies="13"
       starting_angle="90"
       rotation_angle="27.692308"
       gap="-0.01"
       copies_to_360="true"
       mirror_copies="false"
       split_items="true"
       link_styles="false" />
    <inkscape:path-effect
       effect="curvestitching"
       id="path-effect4"
       is_visible="true"
       lpeversion="1"
       count="4"
       startpoint_edge_variation="0;1"
       startpoint_spacing_variation="0;1"
       endpoint_edge_variation="0;1"
       endpoint_spacing_variation="0;1"
       strokepath="m 129.48798,220.48915 h 10.34168"
       prop_scale="1"
       scale_y_rel="false" />
    <linearGradient
       id="swatch95">
      <stop
         style="stop-color:#000000;stop-opacity:1;"
         offset="0"
         id="stop95" />
    </linearGradient>
    <inkscape:path-effect
       effect="curvestitching"
       id="path-effect94"
       is_visible="false"
       lpeversion="1"
       count="5"
       startpoint_edge_variation="0;1"
       startpoint_spacing_variation="0;1"
       endpoint_edge_variation="0;1"
       endpoint_spacing_variation="0;1"
       strokepath="m 79.845181,200.82534 7.355349,-7.0691"
       prop_scale="1"
       scale_y_rel="false"
       strokepath-nodetypes="cc" />
    <inkscape:path-effect
       effect="bspline"
       id="path-effect92"
       is_visible="true"
       lpeversion="1.3"
       weight="33.333333"
       steps="2"
       helper_size="0"
       apply_no_weight="true"
       apply_with_weight="true"
       only_selected="false"
       uniform="false" />
    <inkscape:path-effect
       effect="spiro"
       id="path-effect91"
       is_visible="true"
       lpeversion="1" />
    <inkscape:path-effect
       effect="curvestitching"
       id="path-effect78"
       is_visible="true"
       lpeversion="1"
       count="10"
       startpoint_edge_variation="0;1"
       startpoint_spacing_variation="0;1"
       endpoint_edge_variation="0;1"
       endpoint_spacing_variation="0;1"
       strokepath="M 60.621322,220.59309 H 149.19636"
       prop_scale="1"
       scale_y_rel="false" />
    <inkscape:path-effect
       effect="curvestitching"
       id="path-effect77"
       is_visible="true"
       lpeversion="1"
       count="9"
       startpoint_edge_variation="0;1"
       startpoint_spacing_variation="0;1"
       endpoint_edge_variation="0;1"
       endpoint_spacing_variation="0;1"
       strokepath="m 104.31767,211.67234 0.68235,18.09072"
       prop_scale="1"
       scale_y_rel="false"
       strokepath-nodetypes="cc" />
    <inkscape:path-effect
       effect="curvestitching"
       id="path-effect75"
       is_visible="true"
       lpeversion="1"
       count="9"
       startpoint_edge_variation="0;1"
       startpoint_spacing_variation="0;1"
       endpoint_edge_variation="0;1"
       endpoint_spacing_variation="0;1"
       strokepath="M 43.961941,164.40552 H 105.00001"
       prop_scale="1"
       scale_y_rel="false" />
    <inkscape:path-effect
       effect="curvestitching"
       id="path-effect73"
       is_visible="true"
       lpeversion="1"
       count="7"
       startpoint_edge_variation="0;1"
       startpoint_spacing_variation="0;1"
       endpoint_edge_variation="0;1"
       endpoint_spacing_variation="0;1"
       strokepath="M 88.560369,117.6387 105,126.03116"
       prop_scale="1"
       scale_y_rel="false"
       strokepath-nodetypes="cc" />
    <inkscape:path-effect
       effect="curvestitching"
       id="path-effect69"
       is_visible="true"
       lpeversion="1"
       count="2"
       startpoint_edge_variation="0;1"
       startpoint_spacing_variation="0;1"
       endpoint_edge_variation="0;1"
       endpoint_spacing_variation="0;1"
       strokepath="M 34.484249,165.16573 H 175.63752"
       prop_scale="1"
       scale_y_rel="false" />
    <inkscape:path-effect
       effect="interpolate"
       id="path-effect68"
       is_visible="true"
       lpeversion="1"
       trajectory="m 143.9162,159.22749 -38.94453,70.78634"
       equidistant_spacing="true"
       steps="5" />
    <inkscape:path-effect
       effect="curvestitching"
       id="path-effect67"
       is_visible="true"
       lpeversion="1"
       count="2"
       startpoint_edge_variation="0;1"
       startpoint_spacing_variation="0;1"
       endpoint_edge_variation="0;1"
       endpoint_spacing_variation="0;1"
       strokepath="M 34.484249,165.16573 H 175.63752"
       prop_scale="1"
       scale_y_rel="false" />
    <inkscape:path-effect
       effect="tiling"
       id="path-effect66"
       is_visible="true"
       lpeversion="1.3.1"
       unit="px"
       seed="1;1"
       lpesatellites=""
       num_rows="3"
       num_cols="3"
       gapx="0"
       gapy="0"
       offset="0"
       offset_type="false"
       scale="0"
       rotate="0"
       mirrorrowsx="false"
       mirrorrowsy="false"
       mirrorcolsx="false"
       mirrorcolsy="false"
       mirrortrans="false"
       shrink_interp="false"
       split_items="false"
       link_styles="false"
       interpolate_scalex="false"
       interpolate_scaley="true"
       interpolate_rotatex="false"
       interpolate_rotatey="true"
       random_scale="false"
       random_rotate="false"
       random_gap_y="false"
       random_gap_x="false"
       transformorigin="" />
    <inkscape:path-effect
       effect="sketch"
       id="path-effect65"
       is_visible="true"
       lpeversion="1"
       nbiter_approxstrokes="5"
       parallel_offset="5;1"
       strokelength="100"
       strokelength_rdm="0.3;1"
       strokeoverlap="0.3"
       strokeoverlap_rdm="0.3;1"
       ends_tolerance="0.1;1"
       tremble_size="5;1"
       tremble_frequency="1"
       nbtangents="5"
       tgt_places_rdmness="1;1"
       tgtlength="100"
       tgtlength_rdm="0.3;1"
       tgtscale="10" />
    <inkscape:path-effect
       effect="measure_segments"
       linked_items=""
       id="path-effect64"
       is_visible="true"
       lpeversion="1.3.1"
       unit="mm"
       orientation="parallel"
       coloropacity="#000000ff"
       fontbutton="Sans 10"
       precision="2"
       fix_overlaps="0"
       position="5"
       text_top_bottom="0"
       helpline_distance="0"
       helpline_overlap="2"
       line_width="0.25"
       scale="1"
       format="{measure}{unit}"
       blacklist=""
       active_projection="false"
       whitelist="false"
       showindex="false"
       arrows_outside="false"
       flip_side="false"
       scale_sensitive="true"
       local_locale="true"
       rotate_anotation="true"
       hide_back="true"
       hide_arrows="false"
       smallx100="false"
       distance_projection="20"
       angle_projection="0"
       avoid_overlapping="true"
       onbbox="false"
       bboxonly="false"
       centers="false"
       maxmin="false"
       helpdata="" />
    <inkscape:path-effect
       effect="interpolate"
       id="path-effect61"
       is_visible="true"
       lpeversion="1"
       trajectory="M 0,0 V 0"
       equidistant_spacing="true"
       steps="5" />
    <inkscape:path-effect
       effect="curvestitching"
       id="path-effect60"
       is_visible="true"
       lpeversion="1"
       count="5"
       startpoint_edge_variation="0;1"
       startpoint_spacing_variation="0;1"
       endpoint_edge_variation="0;1"
       endpoint_spacing_variation="0;1"
       strokepath="M 52.291632,205.80785 96.78019,121.83493"
       prop_scale="1"
       scale_y_rel="false"
       strokepath-nodetypes="cc" />
    <inkscape:path-effect
       effect="curvestitching"
       id="path-effect59"
       is_visible="true"
       lpeversion="1"
       count="5"
       startpoint_edge_variation="0;1"
       startpoint_spacing_variation="0;1"
       endpoint_edge_variation="0;1"
       endpoint_spacing_variation="0;1"
       strokepath="M 49.970793,193.78475 H 67.33991"
       prop_scale="1"
       scale_y_rel="false" />
    <inkscape:path-effect
       effect="copy_rotate"
       starting_point="96.663509,113.2229"
       origin="88.327017,113.2229"
       id="path-effect58"
       is_visible="true"
       lpeversion="1.2"
       lpesatellites=""
       method="normal"
       num_copies="3"
       starting_angle="0"
       rotation_angle="120"
       gap="0.04"
       copies_to_360="true"
       mirror_copies="false"
       split_items="false"
       link_styles="false" />
    <inkscape:path-effect
       effect="copy_rotate"
       starting_point="106,192"
       origin="105,192"
       id="path-effect53"
       is_visible="true"
       lpeversion="1.2"
       lpesatellites=""
       method="normal"
       num_copies="35"
       starting_angle="0"
       rotation_angle="10.285714"
       gap="-0.01"
       copies_to_360="true"
       mirror_copies="false"
       split_items="false"
       link_styles="false" />
    <inkscape:path-effect
       effect="circle_with_radius"
       id="path-effect48"
       is_visible="true"
       lpeversion="1" />
    <inkscape:path-effect
       effect="curvestitching"
       id="path-effect75-4"
       is_visible="true"
       lpeversion="1"
       count="9"
       startpoint_edge_variation="0;1"
       startpoint_spacing_variation="0;1"
       endpoint_edge_variation="0;1"
       endpoint_spacing_variation="0;1"
       strokepath="M 43.961941,164.40552 H 105.00001"
       prop_scale="1"
       scale_y_rel="false" />
    <inkscape:path-effect
       effect="curvestitching"
       id="path-effect75-0"
       is_visible="true"
       lpeversion="1"
       count="9"
       startpoint_edge_variation="0;1"
       startpoint_spacing_variation="0;1"
       endpoint_edge_variation="0;1"
       endpoint_spacing_variation="0;1"
       strokepath="M 43.961941,164.40552 H 105.00001"
       prop_scale="1"
       scale_y_rel="false" />
    <inkscape:path-effect
       effect="curvestitching"
       id="path-effect75-5"
       is_visible="true"
       lpeversion="1"
       count="9"
       startpoint_edge_variation="0;1"
       startpoint_spacing_variation="0;1"
       endpoint_edge_variation="0;1"
       endpoint_spacing_variation="0;1"
       strokepath="M 43.961941,164.40552 H 105.00001"
       prop_scale="1"
       scale_y_rel="false" />
    <radialGradient
       inkscape:collect="always"
       xlink:href="#swatch95"
       id="radialGradient96"
       cx="105"
       cy="180.00003"
       fx="105"
       fy="180.00003"
       r="18"
       gradientTransform="matrix(1.1252653,0,0,1.1252653,16.847174,-47.574287)"
       gradientUnits="userSpaceOnUse" />
  </defs>
  <g
     inkscape:label="Layer 1"
     inkscape:groupmode="layer"
     id="layer1">
    <path
       style="fill:none;stroke:#000000;stroke-width:1.12527;stroke-dasharray:none;stroke-opacity:1"
       d="M 128.79755,222.48244 H 106.07441 V 240.3659"
       id="path7-5"
       sodipodi:nodetypes="ccc" />
    <path
       style="fill:none;stroke:#000000;stroke-width:1.12527;stroke-dasharray:none;stroke-opacity:1"
       d="m 84.209072,211.10571 v 22.72314 m 7.082951,0 h 15.193367"
       id="path7-2"
       sodipodi:nodetypes="cccc" />
    <path
       style="fill:none;stroke:#000000;stroke-width:1.12527;stroke-dasharray:none;stroke-opacity:1"
       d="m 140.43468,233.73549 h 22.72315 v -22.27631"
       id="path7"
       sodipodi:nodetypes="ccc" />
    <path
       style="fill:none;fill-opacity:1;stroke:#000000;stroke-width:1.12527;stroke-linecap:round;stroke-linejoin:miter;stroke-dasharray:none;stroke-opacity:1"
       d="M 135.00003,155.19886 244.8265,50.02091"
       id="path211"
       sodipodi:nodetypes="cc" />
    <path
       style="fill:#000000;fill-opacity:1;stroke:#000000;stroke-width:1.12527;stroke-linecap:round;stroke-linejoin:miter;stroke-dasharray:none;stroke-opacity:1"
       d="M 135.00003,155.19886 25.190945,50.002651"
       id="path212"
       sodipodi:nodetypes="cc" />
    <path
       style="fill:#000000;fill-opacity:1;stroke:#000000;stroke-width:1.12527;stroke-linecap:round;stroke-linejoin:miter;stroke-dasharray:none;stroke-opacity:1"
       d="M 135.00003,155.19886 69.172694,18.065954"
       id="path213" />
    <path
       style="fill:#000000;fill-opacity:1;stroke:#000000;stroke-width:1.12527;stroke-linecap:round;stroke-linejoin:miter;stroke-dasharray:none;stroke-opacity:1"
       d="M 135.00003,155.19886 200.74807,18.027887"
       id="path214" />
    <path
       style="fill:none;fill-opacity:1;stroke:#000000;stroke-width:1.12527;stroke-linecap:round;stroke-linejoin:miter;stroke-dasharray:none;stroke-opacity:1"
       d="M 135.00003,155.19886 175.41092,8.5362414"
       id="path132" />
    <path
       style="fill:none;fill-opacity:1;stroke:#000000;stroke-width:1.12527;stroke-linecap:round;stroke-linejoin:miter;stroke-dasharray:none;stroke-opacity:1"
       d="M 135.00003,155.19886 94.642487,8.5215113"
       id="path133" />
    <path
       style="fill:none;fill-opacity:1;stroke:#000000;stroke-width:1.12527;stroke-linecap:round;stroke-linejoin:miter;stroke-dasharray:none;stroke-opacity:1"
       d="M 135.00003,155.17495 121.21435,3.6894315"
       id="path130" />
    <path
       style="fill:none;fill-opacity:1;stroke:#000000;stroke-width:1.12527;stroke-linecap:round;stroke-linejoin:miter;stroke-dasharray:none;stroke-opacity:1"
       d="M 135.00003,155.19886 148.61361,3.6738525"
       id="path131" />
    <path
       style="fill:#f2f2f2;fill-opacity:1;stroke:#000000;stroke-width:1.12527;stroke-linecap:round;stroke-linejoin:miter;stroke-dasharray:none;stroke-opacity:1"
       id="path134"
       sodipodi:type="arc"
       sodipodi:cx="135.00003"
       sodipodi:cy="154.39388"
       sodipodi:rx="130.84796"
       sodipodi:ry="130.84796"
       sodipodi:start="4.082284"
       sodipodi:end="5.3434244"
       sodipodi:arc-type="slice"
       d="m 57.900541,48.673216 a 130.84796,130.84796 0 0 1 154.297309,0.07178 L 135.00003,154.39388 Z" />
    <path
       style="fill:none;fill-opacity:1;stroke:#000000;stroke-width:1.12527;stroke-linecap:butt;stroke-linejoin:miter;stroke-dasharray:none;stroke-opacity:1"
       d="M 135.00003,155.19886 223.93851,32.503716"
       id="path105"
       sodipodi:nodetypes="cc" />
    <path
       style="fill:none;fill-opacity:1;stroke:#000000;stroke-width:1.12527;stroke-linecap:butt;stroke-linejoin:miter;stroke-dasharray:none;stroke-opacity:1"
       d="M 135.00003,155.19886 46.013377,32.538709"
       id="path102" />
    <ellipse
       style="fill:#f2f2f2;stroke:#000000;stroke-width:1.0666;stroke-dasharray:none;stroke-opacity:1"
       id="path1"
       ry="111.99326"
       rx="111.99323"
       cy="154.97345"
       cx="135" />
    <path
       style="display:inline;fill:none;fill-opacity:1;stroke:#000000;stroke-width:1;stroke-dasharray:none;stroke-opacity:1"
       d="m 105,192 v 105 m 0,-105 18.74847,103.31261 M 105,192 141.89436,290.30466 M 105,192 158.85442,282.13712 M 105,192 174.08357,271.0725 M 105,192 187.09231,257.46643 M 105,192 197.46253,241.75621 M 105,192 204.86093,224.44678 M 105,192 209.04972,206.09449 M 105,192 209.89427,187.28919 M 105,192 207.36743,168.6353 M 105,192 201.55042,150.73237 M 105,192 192.63019,134.15582 M 105,192 180.89346,119.43842 M 105,192 166.71745,107.05322 M 105,192 150.55779,97.398269 M 105,192 132.93387,90.7839 M 105,192 114.41213,87.422699 M 105,192 95.587873,87.422699 M 105,192 77.066131,90.7839 M 105,192 59.442207,97.398269 M 105,192 43.282549,107.05322 M 105,192 29.106539,119.43842 M 105,192 17.369808,134.15582 M 105,192 8.4495839,150.73237 M 105,192 2.6325692,168.6353 M 105,192 0.10572801,187.28919 M 105,192 0.95027501,206.09449 M 105,192 5.1390658,224.44678 M 105,192 12.537469,241.75621 M 105,192 22.907694,257.46643 M 105,192 35.916434,271.0725 M 105,192 51.145576,282.13712 M 105,192 68.105643,290.30466 M 105,192 86.251526,295.31261"
       id="path53"
       inkscape:path-effect="#path-effect53"
       inkscape:original-d="M 105,192 V 297"
       sodipodi:nodetypes="cc"
       transform="matrix(1.0666022,0,0,1.0666022,23.006799,-49.814178)"
       inkscape:label="Tiles" />
    <path
       style="fill:#f2f2f2;stroke:#000000;stroke-width:0.967145;stroke-dasharray:none;stroke-dashoffset:1.88976"
       id="path29"
       sodipodi:type="arc"
       sodipodi:cx="-134.63972"
       sodipodi:cy="-154.78207"
       sodipodi:rx="111.02915"
       sodipodi:ry="112.57284"
       sodipodi:start="4.1719579"
       sodipodi:end="5.2516929"
       sodipodi:arc-type="slice"
       d="m -191.76485,-251.31182 a 111.02915,112.57284 0 0 1 114.142906,-0.0652 l -57.017776,96.59497 z"
       transform="scale(-1)"
       inkscape:label="Small part pie" />
    <g
       id="g39"
       inkscape:label="5 Tiles"
       transform="translate(317.45119,-12.537505)">
      <path
         transform="matrix(0.24055281,-1.9911543,1.9811306,0.24176991,-633.10836,385.50878)"
         style="fill:#f2f2f2;stroke:#000000;stroke-width:0.473695;stroke-dasharray:none;stroke-dashoffset:1.88976"
         id="path28"
         d="M 79.11611,211.08278 H 190.88395" />
      <path
         transform="matrix(-0.70767838,-1.8754357,1.8659945,-0.71125893,-480.79387,571.05474)"
         style="fill:#f2f2f2;stroke:#000000;stroke-width:0.473695;stroke-dasharray:none;stroke-dashoffset:1.88976"
         id="path31"
         d="M 79.11611,211.08278 H 190.88395" />
      <path
         transform="matrix(-0.70767838,1.8754357,-1.8659945,-0.71125893,306.96475,64.686995)"
         style="fill:#f2f2f2;stroke:#000000;stroke-width:0.473695;stroke-dasharray:none;stroke-dashoffset:1.88976"
         id="path36"
         d="M 79.11611,211.08278 H 190.88395" />
      <path
         transform="matrix(0.24055281,1.9911543,-1.9811306,0.24176991,203.25676,-152.103)"
         style="fill:#f2f2f2;stroke:#000000;stroke-width:0.473695;stroke-dasharray:none;stroke-dashoffset:1.88976"
         id="path37"
         d="M 79.11611,211.08278 H 190.88395" />
    </g>
    <ellipse
       style="fill:#f2f2f2;fill-opacity:1;stroke:#000000;stroke-width:1.12527;stroke-dasharray:none;stroke-opacity:1"
       id="path54"
       cx="135"
       cy="154.97345"
       rx="90.158508"
       ry="90.158539" />
    <path
       style="fill:#e6e6e6;fill-opacity:1;stroke:#000000;stroke-width:1.12527;stroke-dasharray:none;stroke-opacity:1"
       d="m 64.626296,211.0946 140.683664,0.31526"
       id="path69" />
    <path
       id="path4"
       style="fill:none;stroke:#000000;stroke-width:1;stroke-dasharray:none;stroke-opacity:1"
       d="m 129.48798,235.47768 h 10.34168 m -10.34168,-9.99235 10.34168,0.008 m -10.34168,-10.00007 10.34168,0.0155 m -10.34168,-10.0078 10.34168,0.0232"
       inkscape:path-effect="#path-effect4"
       inkscape:original-d="m 129.48798,235.47768 v -29.97705 m 10.34168,29.97705 V 205.5238"
       transform="matrix(2.1644257,0,0,1.1276135,-156.17443,-20.475854)" />
    <path
       style="fill:#e6e6e6;fill-opacity:1;stroke:#000000;stroke-width:1.12527;stroke-dasharray:none;stroke-opacity:1"
       d="M 214.48596,198.04566 143.09615,65.151977"
       id="path57" />
    <path
       style="fill:#f2f2f2;fill-opacity:1;stroke:#000000;stroke-width:1.12527;stroke-linecap:round;stroke-linejoin:miter;stroke-dasharray:none;stroke-opacity:1"
       d="m 143.06006,65.418778 10.39354,19.013788 -18.45359,9.811586"
       id="path58-2"
       sodipodi:nodetypes="ccc" />
    <path
       style="fill:#f2f2f2;fill-opacity:1;stroke:#000000;stroke-width:1.12527;stroke-linecap:round;stroke-linejoin:miter;stroke-dasharray:none;stroke-opacity:1"
       d="m 126.93997,65.418778 -10.4389,19.381628 18.49895,9.443746"
       id="path58-2-6"
       sodipodi:nodetypes="ccc" />
    <path
       style="fill:#f2f2f2;fill-opacity:1;stroke:#000000;stroke-width:1.12527;stroke-linecap:round;stroke-linejoin:miter;stroke-dasharray:none;stroke-opacity:1"
       d="m 205.30996,211.40986 -20.88506,-0.15763 0.1025,-21.2017"
       id="path58-2-1"
       sodipodi:nodetypes="ccc" />
    <path
       style="fill:#f2f2f2;fill-opacity:1;stroke:#000000;stroke-width:1.12527;stroke-linecap:round;stroke-linejoin:miter;stroke-dasharray:none;stroke-opacity:1"
       d="m 214.48596,198.04566 -10.63774,-19.80239 -19.32076,11.80728"
       id="path58-2-6-9"
       sodipodi:nodetypes="ccc" />
    <path
       style="fill:#f2f2f2;fill-opacity:1;stroke:#000000;stroke-width:1.12527;stroke-linecap:round;stroke-linejoin:miter;stroke-dasharray:none;stroke-opacity:1"
       d="m 56.068689,197.48304 10.247303,-19.50543 18.746225,12.07294"
       id="path58-2-5"
       sodipodi:nodetypes="ccc" />
    <path
       style="fill:#f2f2f2;fill-opacity:1;stroke:#000000;stroke-width:1.12527;stroke-linecap:round;stroke-linejoin:miter;stroke-dasharray:none;stroke-opacity:1"
       d="m 64.626296,211.0946 20.625262,-0.19121 -0.189341,-20.85284"
       id="path58-2-6-3"
       sodipodi:nodetypes="ccc" />
    <path
       style="fill:#e6e6e6;fill-opacity:1;stroke:#000000;stroke-width:1.12527;stroke-linecap:round;stroke-linejoin:miter;stroke-dasharray:none;stroke-opacity:1"
       d="M 126.93997,65.418778 55.651074,197.77886"
       id="path74" />
    <path
       style="fill:#e6e6e6;fill-opacity:1;stroke:#000000;stroke-width:1.12527;stroke-linecap:round;stroke-linejoin:miter;stroke-dasharray:none;stroke-opacity:1"
       d="m 135.00002,94.244152 49.52744,95.806398"
       id="path73" />
    <path
       id="path75"
       style="fill:#e6e6e6;fill-opacity:1;stroke:#000000;stroke-width:1;stroke-linecap:round;stroke-linejoin:miter;stroke-dasharray:none;stroke-opacity:1"
       d="m 88.560369,117.6387 16.439641,8.39246 m -22.014445,1.95812 16.467109,8.68453 m -22.041912,1.66605 16.494576,8.97659 m -22.06938,1.374 16.522044,9.26865 m -22.096847,1.08193 16.549511,9.56072 m -22.124315,0.78986 16.576979,9.85279 m -22.151782,0.49779 16.604446,10.14485 m -22.179249,0.20574 16.631913,10.43691 m -22.206717,-0.0863 16.659381,10.72898"
       inkscape:path-effect="#path-effect75"
       inkscape:original-d="m 88.560369,117.6387 -44.598428,82.80466 m 61.038069,-74.4122 -44.378688,85.14118"
       transform="matrix(1.1252653,0,0,1.1252653,16.847146,-47.574341)" />
    <path
       style="fill:#e6e6e6;fill-opacity:1;stroke:#000000;stroke-width:1.12527;stroke-linecap:round;stroke-linejoin:miter;stroke-dasharray:none;stroke-opacity:1"
       d="M 135.00001,94.244152 85.062217,190.05058"
       id="path76" />
    <path
       id="path75-4"
       style="fill:#e6e6e6;fill-opacity:1;stroke:#000000;stroke-width:1;stroke-linecap:round;stroke-linejoin:miter;stroke-dasharray:none;stroke-opacity:1"
       d="m 88.560369,117.6387 16.439641,8.39246 m -22.014445,1.95812 16.467109,8.68453 m -22.041912,1.66605 16.494576,8.97659 m -22.06938,1.374 16.522044,9.26865 m -22.096847,1.08193 16.549511,9.56072 m -22.124315,0.78986 16.576979,9.85279 m -22.151782,0.49779 16.604446,10.14485 m -22.179249,0.20574 16.631913,10.43691 m -22.206717,-0.0863 16.659381,10.72898"
       inkscape:path-effect="#path-effect75-4"
       inkscape:original-d="m 88.560369,117.6387 -44.598428,82.80466 m 61.038069,-74.4122 -44.378688,85.14118"
       transform="matrix(-1.1252653,0,0,1.1252653,252.9477,-47.574341)" />
    <path
       style="fill:#e6e6e6;fill-opacity:1;stroke:#000000;stroke-width:1.12527;stroke-linecap:round;stroke-linejoin:miter;stroke-dasharray:none;stroke-opacity:1"
       d="m 134.79485,94.244152 49.93779,95.806428"
       id="path76-1" />
    <path
       id="path78"
       style="fill:#e6e6e6;fill-opacity:1;stroke:#000000;stroke-width:1;stroke-linecap:round;stroke-linejoin:miter;stroke-dasharray:none;stroke-opacity:1"
       d="m 60.789589,229.70383 -0.168267,-18.53149 m 9.960854,18.56593 -0.119183,-18.56593 m 9.91177,18.60038 -0.0701,-18.60037 m 9.862685,18.63481 -0.02101,-18.63481 m 9.813601,18.66926 0.02807,-18.66926 m 9.764514,18.7037 0.0772,-18.70369 m 9.71543,18.73814 0.12624,-18.73814 m 9.66635,18.77258 0.17532,-18.77258 m 9.61726,18.80703 0.22441,-18.80702 m 9.56818,18.84146 0.27349,-18.84146"
       inkscape:path-effect="#path-effect78"
       inkscape:original-d="m 60.789589,229.70383 88.133281,0.31 m -88.301548,-18.84149 88.575038,3e-5"
       transform="matrix(1.1252653,0,0,1.1252653,16.847146,-47.574341)" />
    <path
       style="fill:#e6e6e6;fill-opacity:1;stroke:#000000;stroke-width:1.12527;stroke-linecap:round;stroke-linejoin:miter;stroke-dasharray:none;stroke-opacity:1"
       d="M 85.062217,190.05058 H 184.73269"
       id="path79" />
    <path
       style="fill:#f2f2f2;fill-opacity:1;stroke:#000000;stroke-width:1.12527;stroke-linecap:round;stroke-linejoin:miter;stroke-dasharray:none;stroke-opacity:1"
       d="m 153.77807,130.26824 -11.17756,6.66696"
       id="path80"
       sodipodi:nodetypes="cc" />
    <path
       style="fill:none;fill-opacity:1;stroke:#000000;stroke-width:1.12527;stroke-linecap:round;stroke-linejoin:miter;stroke-dasharray:none;stroke-opacity:1"
       id="path81"
       sodipodi:type="arc"
       sodipodi:cx="135.00003"
       sodipodi:cy="155.1989"
       sodipodi:rx="19.692169"
       sodipodi:ry="19.917564"
       sodipodi:start="5.5183659"
       sodipodi:end="6.1264161"
       sodipodi:arc-type="arc"
       d="m 149.20808,141.40784 a 19.692169,19.917564 0 0 1 5.24263,10.68137"
       sodipodi:open="true" />
    <path
       style="fill:none;fill-opacity:1;stroke:#000000;stroke-width:1.12527;stroke-linecap:round;stroke-linejoin:miter;stroke-dasharray:none;stroke-opacity:1"
       d="m 159.96289,142.01943 -8.05379,4.64986"
       id="path82" />
    <path
       style="fill:none;fill-opacity:1;stroke:#000000;stroke-width:1.12527;stroke-linecap:round;stroke-linejoin:miter;stroke-dasharray:none;stroke-opacity:1"
       d="m 110.01267,141.96475 8.24322,4.75924"
       id="path83" />
    <path
       style="fill:none;fill-opacity:1;stroke:#000000;stroke-width:1.12527;stroke-linecap:round;stroke-linejoin:miter;stroke-dasharray:none;stroke-opacity:1"
       d="m 116.27334,130.17155 11.22926,6.65731"
       id="path84"
       sodipodi:nodetypes="cc" />
    <path
       style="fill:none;fill-opacity:1;stroke:#000000;stroke-width:1.12527;stroke-linecap:round;stroke-linejoin:miter;stroke-dasharray:none;stroke-opacity:1"
       d="m 129.36018,190.05056 v -16.2099"
       id="path85" />
    <path
       style="fill:none;fill-opacity:1;stroke:#000000;stroke-width:1.12527;stroke-linecap:round;stroke-linejoin:miter;stroke-dasharray:none;stroke-opacity:1"
       d="M 140.43468,190.05056 V 173.90078"
       id="path86" />
    <path
       style="fill:none;fill-opacity:1;stroke:#000000;stroke-width:1.12527;stroke-linecap:round;stroke-linejoin:miter;stroke-dasharray:none;stroke-opacity:1"
       id="path87"
       sodipodi:type="arc"
       sodipodi:cx="135.00003"
       sodipodi:cy="154.97345"
       sodipodi:rx="19.692169"
       sodipodi:ry="19.917545"
       sodipodi:start="1.2936138"
       sodipodi:end="1.8633784"
       sodipodi:open="true"
       sodipodi:arc-type="arc"
       d="m 140.38873,174.13075 a 19.692169,19.917545 0 0 1 -11.06842,-0.0862" />
    <path
       style="fill:none;fill-opacity:1;stroke:#000000;stroke-width:1.12527;stroke-linecap:round;stroke-linejoin:miter;stroke-dasharray:none;stroke-opacity:1"
       id="path88"
       sodipodi:type="arc"
       sodipodi:cx="135.00003"
       sodipodi:cy="155.19887"
       sodipodi:rx="19.692169"
       sodipodi:ry="19.917545"
       sodipodi:start="3.2931235"
       sodipodi:end="3.9059516"
       sodipodi:open="true"
       sodipodi:arc-type="arc"
       d="m 115.53351,152.19228 a 19.692169,19.917545 0 0 1 5.2522,-10.77784" />
    <rect
       style="fill:#f2f2f2;fill-opacity:1;stroke:#000000;stroke-width:1.12527;stroke-linecap:round;stroke-linejoin:miter;stroke-dasharray:none;stroke-opacity:1"
       id="rect89"
       width="33.520054"
       height="29.043999"
       x="118.30934"
       y="181.97569" />
    <path
       style="fill:#f2f2f2;fill-opacity:1;stroke:#000000;stroke-width:1.12527;stroke-linecap:round;stroke-linejoin:miter;stroke-dasharray:none;stroke-opacity:1"
       d="M 118.28569,190.05056 96.159504,168.76024"
       id="path94" />
    <path
       style="fill:#f2f2f2;fill-opacity:1;stroke:#000000;stroke-width:1.12527;stroke-linecap:round;stroke-linejoin:miter;stroke-dasharray:none;stroke-opacity:1"
       d="m 101.59416,158.29788 22.12619,21.29032 c 2.38748,2.38748 2.95403,2.35742 2.95403,2.35742"
       id="path94-1" />
    <path
       style="fill:#f2f2f2;fill-opacity:1;stroke:#000000;stroke-width:1.12527;stroke-linecap:butt;stroke-linejoin:miter;stroke-dasharray:none;stroke-opacity:1"
       d="m 107.2226,179.4054 6.91167,-9.28365"
       id="path95"
       sodipodi:nodetypes="cc" />
    <path
       style="fill:#f2f2f2;fill-opacity:1;stroke:#000000;stroke-width:1.12527;stroke-linecap:round;stroke-linejoin:miter;stroke-dasharray:none;stroke-opacity:1"
       d="m 151.50917,190.05057 22.08631,-21.20636"
       id="path94-3"
       sodipodi:nodetypes="cc" />
    <path
       style="fill:#f2f2f2;fill-opacity:1;stroke:#000000;stroke-width:1.12527;stroke-linecap:round;stroke-linejoin:miter;stroke-dasharray:none;stroke-opacity:1"
       d="m 168.16083,158.38186 -22.12619,21.29031 c -2.38747,2.38749 -2.32334,2.3035 -2.32334,2.3035"
       id="path94-1-9"
       sodipodi:nodetypes="ccc" />
    <path
       style="fill:#f2f2f2;fill-opacity:1;stroke:#000000;stroke-width:1.12527;stroke-linecap:butt;stroke-linejoin:miter;stroke-dasharray:none;stroke-opacity:1"
       d="m 162.53239,179.48937 -6.5964,-9.31042"
       id="path95-0"
       sodipodi:nodetypes="cc" />
    <path
       style="fill:none;fill-opacity:1;stroke:#000000;stroke-width:1.13139;stroke-linecap:butt;stroke-linejoin:miter;stroke-dasharray:none;stroke-opacity:1"
       id="path104"
       sodipodi:type="arc"
       sodipodi:cx="135.00003"
       sodipodi:cy="155.1989"
       sodipodi:rx="131.65298"
       sodipodi:ry="131.65298"
       sodipodi:start="3.9078405"
       sodipodi:end="5.5181376"
       sodipodi:arc-type="arc"
       d="M 40.141736,63.905896 A 131.65298,131.65298 0 0 1 135.07903,23.545937 131.65298,131.65298 0 0 1 229.96782,64.019805"
       sodipodi:open="true" />
    <path
       style="fill:none;fill-opacity:1;stroke:#000000;stroke-width:1.12527;stroke-linecap:round;stroke-linejoin:miter;stroke-dasharray:none;stroke-opacity:1"
       id="path107"
       sodipodi:type="arc"
       sodipodi:cx="135"
       sodipodi:cy="154.97345"
       sodipodi:rx="151.91081"
       sodipodi:ry="151.91081"
       sodipodi:start="3.9047633"
       sodipodi:end="5.5201406"
       sodipodi:arc-type="arc"
       d="M 25.221948,49.970239 A 151.91081,151.91081 0 0 1 135.00957,3.0626376 151.91081,151.91081 0 0 1 244.79127,49.984065"
       sodipodi:open="true" />
    <path
       style="fill:#ffd42a;fill-opacity:1;stroke:#ffd42a;stroke-width:0.843283;stroke-linecap:round;stroke-linejoin:miter;stroke-dasharray:none;stroke-opacity:1"
       d="m 185.17688,204.17399 c 0.0297,-3.58947 0.11582,-8.16172 0.19147,-10.16057 l 0.13752,-3.63425 1.25881,-0.81049 c 2.57988,-1.66111 16.82477,-10.34272 16.86906,-10.28092 0.0253,0.0353 2.27099,4.2166 4.99037,9.29173 l 4.94434,9.22752 -1.26065,2.15152 c -1.56468,2.67043 -3.92347,6.22352 -5.83495,8.7893 l -1.45443,1.95227 -9.94774,1.1e-4 -9.94774,1.1e-4 z"
       id="path138" />
    <path
       style="fill:#ffd42a;fill-opacity:1;stroke:#ffd42a;stroke-width:0.843283;stroke-linecap:round;stroke-linejoin:miter;stroke-dasharray:none;stroke-opacity:1"
       d="m 63.352611,208.52301 c -1.923378,-2.60486 -4.311856,-6.21275 -5.632156,-8.5076 -0.933241,-1.6221 -1.046437,-1.9492 -0.84933,-2.4543 0.581935,-1.49126 9.677426,-18.42605 9.871504,-18.37965 0.121025,0.029 4.124639,2.56564 8.896917,5.63715 l 8.676865,5.58454 0.160391,9.83644 c 0.08822,5.41004 0.128737,9.8625 0.09006,9.89436 -0.03868,0.0319 -4.503646,0.12132 -9.922148,0.19879 l -9.851818,0.14085 z"
       id="path139" />
    <path
       style="fill:#ffd42a;fill-opacity:1;stroke:#ffd42a;stroke-width:0.843283;stroke-linecap:round;stroke-linejoin:miter;stroke-dasharray:none;stroke-opacity:1"
       d="m 126.07824,88.91777 -8.61994,-4.401405 5.05004,-9.365826 5.05005,-9.365837 3.6386,-0.193846 c 3.61871,-0.192788 10.68157,-0.01423 11.16113,0.282139 0.41483,0.256379 10.09741,18.166694 9.91339,18.337266 -0.47054,0.43618 -17.0764,9.138692 -17.40105,9.119239 -0.0948,-0.0059 -4.05126,-1.990955 -8.79222,-4.41173 z"
       id="path140" />
    <path
       style="fill:#ffd42a;fill-opacity:1;stroke:#ffd42a;stroke-width:0.843283;stroke-linecap:round;stroke-linejoin:miter;stroke-dasharray:none;stroke-opacity:1"
       d="m 118.96833,196.42053 v -13.83335 h 16.05222 16.05222 l 0.0142,13.83335 0.0141,13.83335 h -16.06634 -16.06639 z"
       id="path141" />
    <path
       style="fill:#ffd42a;fill-opacity:1;stroke:#ffd42a;stroke-width:0.843283;stroke-linecap:round;stroke-linejoin:miter;stroke-dasharray:none;stroke-opacity:1"
       d="m 130.12426,178.11471 v -3.13377 l 0.83669,0.17746 c 1.02578,0.21754 6.76961,0.23505 7.9207,0.0241 l 0.83669,-0.15331 v 3.10963 3.10964 h -4.79703 -4.79705 z"
       id="path142" />
    <path
       style="fill:#ffd42a;fill-opacity:1;stroke:#ffd42a;stroke-width:0.843283;stroke-linecap:round;stroke-linejoin:miter;stroke-dasharray:none;stroke-opacity:1"
       d="m 151.93734,143.66913 c -1.21827,-1.84415 -3.77894,-4.42145 -5.52544,-5.56129 -0.67494,-0.44049 -1.41546,-0.93309 -1.64562,-1.09467 -0.37842,-0.26566 -9.6e-4,-0.54387 3.9425,-2.90693 2.39854,-1.43725 4.44739,-2.61317 4.55302,-2.61317 0.10562,0 0.56061,0.72793 1.01109,1.61762 0.45048,0.88967 1.66282,3.2241 2.69407,5.1876 l 1.87501,3.56999 -2.93112,1.6894 -2.93111,1.68938 z"
       id="path143" />
    <path
       style="fill:#ffd42a;fill-opacity:1;stroke:#ffd42a;stroke-width:0.843283;stroke-linecap:round;stroke-linejoin:miter;stroke-dasharray:none;stroke-opacity:1"
       d="m 114.12347,143.55393 c -1.62159,-0.92722 -2.95194,-1.76818 -2.95632,-1.8688 -0.01,-0.21324 4.81264,-9.54018 5.22061,-10.09811 0.2476,-0.33862 0.73588,-0.10333 4.88678,2.35487 l 4.61169,2.73108 -1.34293,0.81261 c -2.80455,1.69703 -5.40073,4.26112 -6.93501,6.84925 l -0.53646,0.90495 z"
       id="path144" />
    <path
       style="fill:#ffd42a;fill-opacity:1;stroke:#ffd42a;stroke-width:0.843283;stroke-linecap:round;stroke-linejoin:miter;stroke-dasharray:none;stroke-opacity:1"
       d="m 47.169312,223.34538 c -1.578513,-1.71179 -6.876765,-9.655 -9.049203,-13.56669 l -0.821514,-1.47921 8.873153,-4.76811 c 4.880233,-2.62245 8.944077,-4.7681 9.030763,-4.7681 0.08668,0 0.844174,1.15464 1.683304,2.56586 1.810031,3.04406 3.447172,5.50376 5.225999,7.85176 0.715016,0.9438 1.294665,1.79722 1.288112,1.8965 -0.0065,0.0993 -3.56043,3.00939 -7.897497,6.46691 l -7.885583,6.2864 z"
       id="path145" />
    <path
       style="fill:#ffd42a;fill-opacity:1;stroke:#ffd42a;stroke-width:0.843283;stroke-linecap:round;stroke-linejoin:miter;stroke-dasharray:none;stroke-opacity:1"
       d="m 214.42002,217.46244 -7.96368,-6.37606 1.31803,-1.73142 c 1.47786,-1.94142 4.57106,-6.63003 5.99435,-9.08613 l 0.93767,-1.61809 0.71501,0.36827 c 0.97099,0.50012 17.21711,9.25577 17.25944,9.30176 0.0573,0.0623 -2.22363,3.93882 -3.69766,6.28391 -1.41701,2.25439 -5.13125,7.52557 -6.08311,8.63304 l -0.51636,0.60079 z"
       id="path146" />
    <path
       style="fill:#ffd42a;fill-opacity:1;stroke:#ffd42a;stroke-width:0.843283;stroke-linecap:round;stroke-linejoin:miter;stroke-dasharray:none;stroke-opacity:1"
       d="m 186.01542,79.816973 c -2.38351,-1.63513 -5.96452,-3.791624 -8.72466,-5.254022 l -2.25421,-1.194343 2.47732,-5.133745 c 1.36254,-2.823558 3.36069,-6.970991 4.44034,-9.216518 l 1.963,-4.082773 2.72248,1.43268 c 6.01234,3.16392 13.21681,7.77969 13.00488,8.331976 -0.11113,0.289595 -11.73177,16.383778 -11.80873,16.354668 -0.0195,-0.0079 -0.83871,-0.56445 -1.82042,-1.237923 z"
       id="path149" />
    <path
       style="fill:#ffd42a;fill-opacity:1;stroke:#ffd42a;stroke-width:0.843283;stroke-linecap:round;stroke-linejoin:miter;stroke-dasharray:none;stroke-opacity:1"
       d="m 222.71862,131.40593 c -0.6693,-2.46477 -2.45609,-7.83913 -3.47332,-10.44722 -0.22564,-0.57851 -0.36483,-1.08514 -0.30932,-1.12585 0.25305,-0.18554 18.39411,-7.86264 18.57952,-7.86264 0.58619,0 5.09828,13.42022 5.6262,16.73387 l 0.14219,0.89247 -8.2189,1.87349 c -4.52041,1.0304 -8.98251,2.04542 -9.9158,2.25559 l -1.69689,0.38212 z"
       id="path150" />
    <path
       style="fill:#ffd42a;fill-opacity:1;stroke:#ffd42a;stroke-width:0.843283;stroke-linecap:round;stroke-linejoin:miter;stroke-dasharray:none;stroke-opacity:1"
       d="m 24.487653,168.47495 c -0.377616,-2.24802 -0.606874,-5.89083 -0.723148,-11.4906 l -0.130881,-6.30309 1.202943,0.007 c 0.914444,0.006 19.182145,0.83544 19.299447,0.87692 0.01316,0.005 0.08459,2.54364 0.158762,5.64221 0.07417,3.09855 0.243466,6.42425 0.376213,7.39043 0.132748,0.96617 0.19638,1.80165 0.141405,1.85664 -0.09459,0.0946 -19.331821,2.74554 -19.92363,2.74554 -0.153617,0 -0.334117,-0.32631 -0.401111,-0.72514 z"
       id="path151" />
    <path
       style="fill:#ff0000;fill-opacity:1;stroke:#ff0000;stroke-width:0.843283;stroke-linecap:round;stroke-linejoin:miter;stroke-dasharray:none;stroke-opacity:1"
       d="m 107.36617,124.37904 c -4.72453,-2.65575 -8.586591,-4.91425 -8.582361,-5.01889 0.01423,-0.35373 5.345651,-10.16959 5.526001,-10.17427 0.36572,-0.01 17.11283,9.20502 17.11283,9.41574 0,0.16245 -5.26883,10.41236 -5.43717,10.57738 -0.0161,0.0158 -3.89477,-2.14421 -8.6193,-4.79996 z"
       id="path191" />
    <path
       style="fill:#ff0000;fill-opacity:1;stroke:#ff0000;stroke-width:0.843283;stroke-linecap:round;stroke-linejoin:miter;stroke-dasharray:none;stroke-opacity:1"
       d="m 95.200322,148.20334 c -4.537213,-2.69874 -8.441713,-5.03395 -8.67666,-5.18935 -0.403955,-0.26719 -0.27782,-0.56061 2.321341,-5.39971 1.511678,-2.81445 2.773804,-5.14957 2.804721,-5.18916 0.04574,-0.0587 6.341342,3.54091 15.966856,9.12931 l 1.47756,0.85785 -2.7196,5.24637 c -1.49577,2.8855 -2.76574,5.29252 -2.82216,5.34894 -0.0564,0.0564 -3.814846,-2.1055 -8.352058,-4.80425 z"
       id="path192" />
    <path
       style="fill:#ff0000;fill-opacity:1;stroke:#ff0000;stroke-width:0.843283;stroke-linecap:round;stroke-linejoin:miter;stroke-dasharray:none;stroke-opacity:1"
       d="m 102.0358,173.46499 -4.995672,-4.86058 2.31825,-4.49482 c 1.275052,-2.47215 2.400242,-4.46946 2.500442,-4.43848 0.30634,0.0947 11.08531,10.47487 11.08531,10.67515 0,0.18132 -5.73859,8.01304 -5.85492,7.9905 -0.0317,-0.006 -2.30577,-2.19846 -5.05341,-4.87177 z"
       id="path193" />
    <path
       style="fill:#ff0000;fill-opacity:1;stroke:#ff0000;stroke-width:0.843283;stroke-linecap:round;stroke-linejoin:miter;stroke-dasharray:none;stroke-opacity:1"
       d="m 202.02444,230.65976 -6.71382,-7.68529 1.93439,-1.84215 c 1.72537,-1.64311 5.58043,-5.69606 7.67062,-8.0644 l 0.76552,-0.8674 7.79349,6.19436 c 4.28641,3.4069 7.87717,6.27052 7.97946,6.36361 0.38037,0.34612 -7.52501,8.9795 -11.24795,12.28377 l -1.46788,1.30281 z"
       id="path194" />
    <path
       style="fill:#ffd42a;fill-opacity:1;stroke:#ffd42a;stroke-width:0.843283;stroke-linecap:round;stroke-linejoin:miter;stroke-dasharray:none;stroke-opacity:1"
       d="m 174.15416,203.97021 c 0.0811,-3.70144 0.14754,-8.21958 0.14754,-10.04032 v -3.31044 h 4.79704 4.79705 v 5.31886 c 0,2.92538 -0.0661,7.44353 -0.14705,10.04033 l -0.14703,4.72146 h -4.79754 -4.79755 z"
       id="path195" />
    <path
       style="fill:#ffd42a;fill-opacity:1;stroke:#ffd42a;stroke-width:0.843283;stroke-linecap:round;stroke-linejoin:miter;stroke-dasharray:none;stroke-opacity:1"
       d="m 152.43609,200.65978 v -10.04033 h 4.68549 4.68549 v 10.04033 10.04032 h -4.68549 -4.68549 z"
       id="path196" />
    <path
       style="fill:#ffd42a;fill-opacity:1;stroke:#ffd42a;stroke-width:0.843283;stroke-linecap:round;stroke-linejoin:miter;stroke-dasharray:none;stroke-opacity:1"
       d="m 159.692,174.27745 -2.86137,-4.045 3.43647,-3.30509 c 1.89005,-1.81779 4.40567,-4.21082 5.59026,-5.31783 l 2.15377,-2.01275 2.35377,4.52275 2.35376,4.52276 -4.73065,4.63095 c -2.60188,2.54701 -4.88907,4.72505 -5.08266,4.84007 -0.28679,0.17042 -0.88186,-0.53993 -3.21335,-3.83586 z"
       id="path197" />
    <path
       style="fill:#ffd42a;fill-opacity:1;stroke:#ffd42a;stroke-width:0.843283;stroke-linecap:round;stroke-linejoin:miter;stroke-dasharray:none;stroke-opacity:1"
       d="m 112.83733,183.82198 -4.68072,-4.51884 2.9634,-3.94866 2.96338,-3.94866 0.82486,0.72102 c 0.45368,0.39655 2.78273,2.61104 5.17568,4.92107 l 4.35079,4.20004 -3.39702,2.8e-4 -3.39703,2.5e-4 -0.0613,3.54618 -0.0612,3.54618 z"
       id="path198" />
    <path
       style="fill:#ffd42a;fill-opacity:1;stroke:#ffd42a;stroke-width:0.843283;stroke-linecap:round;stroke-linejoin:miter;stroke-dasharray:none;stroke-opacity:1"
       d="m 178.36655,176.28549 c -0.23959,-0.39959 -1.50448,-2.7987 -2.81087,-5.33137 l -2.37527,-4.60483 8.8352,-5.39772 c 4.85937,-2.96874 8.8619,-5.36451 8.89449,-5.32394 0.54048,0.67268 5.46777,10.32293 5.33349,10.44582 -0.1555,0.14233 -16.35757,10.3167 -17.18157,10.78948 -0.15256,0.0875 -0.43971,-0.15091 -0.69547,-0.57744 z"
       id="path199" />
    <path
       style="fill:#ffd42a;fill-opacity:1;stroke:#ffd42a;stroke-width:0.843283;stroke-linecap:round;stroke-linejoin:miter;stroke-dasharray:none;stroke-opacity:1"
       d="m 151.07527,123.82008 -2.77973,-5.37944 8.70521,-4.73295 c 4.78787,-2.60311 8.77451,-4.66139 8.8592,-4.57392 0.22233,0.2296 5.55124,10.15293 5.48508,10.21416 -0.0304,0.0283 -3.66995,2.07852 -8.0877,4.55622 -4.41773,2.47769 -8.34053,4.68274 -8.71729,4.90013 l -0.68502,0.39524 z"
       id="path200" />
    <path
       style="fill:#ffd42a;fill-opacity:1;stroke:#ffd42a;stroke-width:0.843283;stroke-linecap:round;stroke-linejoin:miter;stroke-dasharray:none;stroke-opacity:1"
       d="m 88.735784,159.9123 c -4.540461,-2.7696 -8.392053,-5.16603 -8.559096,-5.3254 -0.254044,-0.24237 0.147325,-1.12998 2.454303,-5.42758 l 2.758012,-5.13784 1.02754,0.59669 c 0.565147,0.32818 4.497139,2.65495 8.737747,5.17061 l 7.71023,4.57393 -2.13006,4.12769 c -2.6074,5.05266 -3.396383,6.47235 -3.592336,6.464 -0.08303,-0.004 -3.865879,-2.2725 -8.40634,-5.0421 z"
       id="path201" />
    <path
       style="fill:#ffd42a;fill-opacity:1;stroke:#ffd42a;stroke-width:0.843283;stroke-linecap:round;stroke-linejoin:miter;stroke-dasharray:none;stroke-opacity:1"
       d="m 113.50192,112.51195 c -4.66317,-2.56036 -8.44886,-4.77237 -8.41266,-4.91558 0.0362,-0.14321 1.27325,-2.5016 2.74898,-5.24087 l 2.68313,-4.980481 2.71744,1.440903 c 1.49458,0.792507 5.35091,2.821378 8.56961,4.508618 3.2187,1.68725 5.85429,3.15403 5.85685,3.25954 0.008,0.30773 -5.38931,10.6318 -5.54431,10.60622 -0.0772,-0.0128 -3.95586,-2.118 -8.61904,-4.67835 z"
       id="path202" />
    <path
       style="fill:#008000;fill-opacity:1;stroke:#008000;stroke-width:0.789407;stroke-linecap:round;stroke-linejoin:miter;stroke-dasharray:none;stroke-opacity:1"
       d="m 146.57088,115.09052 c -0.62635,-1.1842 -1.89633,-3.61175 -2.82217,-5.39453 l -1.68336,-3.24144 8.6458,-4.55515 c 4.75518,-2.505336 8.73123,-4.502356 8.83565,-4.437814 0.22642,0.13993 5.46268,9.840344 5.46268,10.119844 0,0.10645 -3.68904,2.19394 -8.19789,4.63885 -4.50885,2.44492 -8.40129,4.57537 -8.6499,4.73433 -0.4357,0.27861 -0.49305,0.2114 -1.59081,-1.86409 z"
       id="path224" />
    <path
       style="fill:#008000;fill-opacity:1;stroke:#008000;stroke-width:0.789407;stroke-linecap:round;stroke-linejoin:miter;stroke-dasharray:none;stroke-opacity:1"
       d="m 157.28882,135.86373 c -1.51811,-2.92777 -2.68121,-5.40005 -2.58471,-5.49395 0.0965,-0.0939 3.55908,-2.06605 7.69458,-4.38257 4.13551,-2.3165 8.00368,-4.48691 8.59595,-4.82311 l 1.07685,-0.6113 2.73491,5.08867 c 1.5042,2.79877 2.73316,5.17382 2.73104,5.27788 -0.002,0.10406 -1.90541,1.28303 -4.2295,2.61993 -2.32408,1.3369 -6.25811,3.60453 -8.74227,5.03919 l -4.51668,2.60846 z"
       id="path225" />
    <path
       style="fill:#008000;fill-opacity:1;stroke:#008000;stroke-width:0.789407;stroke-linecap:round;stroke-linejoin:miter;stroke-dasharray:none;stroke-opacity:1"
       d="m 163.13202,201.44339 c 9.6e-4,-5.02578 0.0606,-9.49023 0.13175,-9.92102 l 0.12946,-0.78324 h 4.77655 4.77653 v 3.93443 c 0,2.16394 -0.0621,6.62839 -0.13805,9.92103 l -0.13806,5.98659 h -4.77023 -4.77025 z"
       id="path226" />
    <path
       style="fill:#008000;fill-opacity:1;stroke:#008000;stroke-width:0.789407;stroke-linecap:round;stroke-linejoin:miter;stroke-dasharray:none;stroke-opacity:1"
       d="m 85.850151,201.62919 c 0,-4.92358 -0.05976,-9.38806 -0.13282,-9.92102 l -0.132829,-0.96904 h 4.936685 4.936685 l 5.99e-4,5.37825 c 2.75e-4,2.95802 0.06223,7.42248 0.137692,9.92102 l 0.137182,4.54278 h -4.941632 -4.941562 z"
       id="path227" />
    <path
       style="fill:#008000;fill-opacity:1;stroke:#008000;stroke-width:0.789407;stroke-linecap:round;stroke-linejoin:miter;stroke-dasharray:none;stroke-opacity:1"
       d="m 88.25208,175.35336 c -1.3785,-0.87434 -5.138045,-3.23312 -8.354548,-5.24175 -3.2165,-2.00863 -5.960245,-3.75797 -6.097209,-3.88743 -0.190309,-0.17989 0.400639,-1.43718 2.506366,-5.33247 1.515462,-2.8034 2.849379,-5.08084 2.964254,-5.061 0.114874,0.0198 4.068839,2.39409 8.786588,5.2761 l 8.577717,5.24001 -2.72954,5.2358 c -1.501244,2.87968 -2.823526,5.26384 -2.938398,5.29811 -0.114883,0.0342 -1.336729,-0.65305 -2.71523,-1.52737 z"
       id="path228" />
    <path
       style="fill:#008000;fill-opacity:1;stroke:#008000;stroke-width:0.789407;stroke-linecap:round;stroke-linejoin:miter;stroke-dasharray:none;stroke-opacity:1"
       d="m 231.11485,185.53254 c -6.74987,-2.20993 -9.38993,-3.16077 -9.36717,-3.37367 0.0175,-0.16304 0.37446,-1.5183 0.79337,-3.01167 0.61474,-2.19143 1.41206,-5.91981 2.33441,-10.91593 0.0671,-0.36379 0.1945,-0.44981 0.55253,-0.37325 0.2559,0.0548 4.78875,0.67747 10.07299,1.38389 5.28425,0.70642 9.64113,1.31506 9.68194,1.35253 0.0408,0.0375 -0.12816,1.27226 -0.37549,2.74397 -1.07779,6.41332 -3.39421,15.32852 -3.97323,15.29171 -0.17626,-0.0112 -4.54998,-1.40512 -9.71935,-3.09758 z"
       id="path229" />
    <path
       style="fill:#008000;fill-opacity:1;stroke:#008000;stroke-width:0.789407;stroke-linecap:round;stroke-linejoin:miter;stroke-dasharray:none;stroke-opacity:1"
       d="m 42.344305,114.65629 c -5.135168,-2.18732 -9.336669,-4.06829 -9.336669,-4.17993 0,-0.30203 2.393289,-5.2974 3.812024,-7.9566 1.19722,-2.24401 4.068212,-7.143479 4.645217,-7.927251 0.261919,-0.355787 0.865352,0.002 8.600689,5.091387 4.575454,3.010714 8.400992,5.548804 8.501194,5.640204 0.100204,0.0914 -0.541576,1.37184 -1.426178,2.84543 -0.884601,1.47358 -2.474896,4.43075 -3.533986,6.57147 l -1.925619,3.89223 z"
       id="path230" />
    <path
       style="fill:#0066ff;fill-opacity:1;stroke:#0066ff;stroke-width:0.789407;stroke-linecap:round;stroke-linejoin:miter;stroke-dasharray:none;stroke-opacity:1"
       d="m 33.634226,149.79055 c -4.192938,-0.20439 -8.12984,-0.37944 -8.748674,-0.38902 l -1.12515,-0.0175 0.143341,-2.03642 c 0.364717,-5.18151 1.853076,-15.29298 2.394104,-16.26487 0.119861,-0.21531 5.009286,0.82895 17.267422,3.68793 l 2.725247,0.63561 -0.370082,1.8195 c -0.634405,3.11902 -1.628344,10.86673 -1.633446,12.73263 -8.94e-4,0.32664 -0.747743,0.31486 -10.652762,-0.16796 z"
       id="path231" />
    <path
       style="fill:#0066ff;fill-opacity:1;stroke:#0066ff;stroke-width:0.789407;stroke-linecap:round;stroke-linejoin:miter;stroke-dasharray:none;stroke-opacity:1"
       d="m 216.34245,114.64901 c -1.10246,-2.205 -2.67063,-5.11271 -3.48484,-6.46157 -0.81421,-1.34886 -1.48038,-2.53663 -1.48038,-2.63948 0,-0.18822 16.34099,-11.065435 16.75479,-11.15267 0.50188,-0.105793 5.43815,8.46741 7.69452,13.36369 0.70912,1.53876 1.25492,2.82966 1.21289,2.86869 -0.042,0.039 -4.21191,1.8302 -9.2664,3.9804 -5.0545,2.15021 -9.24313,3.9411 -9.30808,3.97976 -0.0649,0.0387 -1.02006,-1.7338 -2.1225,-3.93882 z"
       id="path234" />
    <path
       style="fill:#0066ff;fill-opacity:1;stroke:#0066ff;stroke-width:0.789407;stroke-linecap:round;stroke-linejoin:miter;stroke-dasharray:none;stroke-opacity:1"
       d="M 98.021453,18.269945 C 96.05106,11.117291 95.564069,9.0976449 95.779779,8.9732804 96.217402,8.7209788 102.56443,7.2280796 106.10994,6.5435061 111.48462,5.5057455 116.85568,4.721528 119.46778,4.5931532 l 1.13932,-0.055994 0.87283,9.3988658 c 0.48006,5.169376 0.84249,9.432292 0.80542,9.473146 -0.0371,0.04085 -1.22453,0.207282 -2.63874,0.369846 -5.15985,0.593112 -11.08513,1.666794 -16.08463,2.914591 -1.57369,0.392767 -2.89771,0.714124 -2.94227,0.714124 -0.0446,0 -1.21377,-4.112004 -2.598257,-9.137785 z"
       id="path235" />
    <path
       style="fill:#f2f2f2;fill-opacity:1;stroke:#f2f2f2;stroke-width:1.15182;stroke-linecap:round;stroke-linejoin:miter;stroke-dasharray:none;stroke-opacity:1"
       d="M 47.491882,70.392492 C 43.951757,67.019713 41.041156,64.171013 41.023886,64.062048 40.919544,63.40378 56.882512,49.641626 57.502177,49.855621 c 0.237484,0.08201 10.265512,13.801531 10.392424,14.218054 0.03773,0.123853 -1.482371,1.470146 -3.378016,2.991763 -1.895649,1.521618 -5.053462,4.272457 -7.01737,6.112975 l -3.570741,3.346404 z"
       id="path238" />
    <path
       style="fill:none;stroke:#000000;stroke-width:1.12527;stroke-dasharray:none;stroke-opacity:1"
       d="M 145.86393,244.33708 V 233.10204"
       id="path5"
       sodipodi:nodetypes="cc" />
    <path
       style="fill:none;stroke:#000000;stroke-width:1.12527;stroke-dasharray:none;stroke-dashoffset:0.562632;stroke-opacity:1"
       d="M 124.08931,244.38371 V 233.13967"
       id="path8" />
    <path
       style="fill:none;stroke:#000000;stroke-width:1.12527;stroke-dasharray:none;stroke-dashoffset:0.562631;stroke-opacity:1"
       d="M 145.86393,233.10204 V 221.86636"
       id="path9" />
    <path
       style="fill:none;stroke:#000000;stroke-width:1.087;stroke-dasharray:none;stroke-dashoffset:0.499999;stroke-opacity:1"
       d="M 145.86393,221.86636 V 211.38229"
       id="path10" />
    <path
       style="fill:none;stroke:#000000;stroke-width:1.12527;stroke-dasharray:none;stroke-dashoffset:1.88976;stroke-opacity:1"
       d="M 124.08931,233.13967 V 221.89562"
       id="path11" />
    <path
       style="fill:none;stroke:#000000;stroke-width:1.0905;stroke-dasharray:none;stroke-dashoffset:0.562632;stroke-opacity:1"
       d="M 124.08931,221.89562 V 211.33567"
       id="path12" />
    <path
       style="fill:#0066ff;fill-opacity:1;stroke:#0066ff;stroke-width:0.789407;stroke-linecap:round;stroke-linejoin:miter;stroke-dasharray:none;stroke-opacity:1"
       d="m 73.28163,247.58217 c -3.99247,-2.68067 -4.149722,-2.79621 -8.256219,-6.06602 -2.327324,-1.85314 -2.71873,-2.24565 -2.506365,-2.51344 0.138415,-0.17455 3.167304,-3.6601 6.730863,-7.74568 l 6.479197,-7.42831 1.901379,1.57413 c 2.257323,1.86881 6.443919,4.8893 8.64656,6.2382 l 1.575641,0.96492 -5.185254,8.67301 c -2.851892,4.77015 -5.29972,8.69753 -5.439623,8.7275 -0.139901,0.0299 -1.915682,-1.06096 -3.946179,-2.42431 z"
       id="path232" />
    <path
       style="fill:#ff0000;stroke:#ff0000;stroke-width:1.12527;stroke-dasharray:none;stroke-dashoffset:1.88976"
       d="m 76.190176,72.743257 c -3.186083,-4.388509 -5.792881,-8.079391 -5.792881,-8.201958 0,-0.628126 14.424555,-9.262008 15.473963,-9.262008 0.200422,0 8.923506,17.552834 8.923506,17.956134 0,0.05914 -1.450777,0.89362 -3.223951,1.854386 -1.773174,0.960766 -4.546105,2.62113 -6.162082,3.6897 -1.615968,1.068567 -3.047822,1.942855 -3.181901,1.942855 -0.134075,0 -2.85057,-3.5906 -6.036654,-7.979109 z"
       id="path3" />
    <path
       style="fill:#ff0000;stroke:#ff0000;stroke-width:0.155824;stroke-dasharray:none;stroke-dashoffset:1.88976"
       d="m 33.261273,56.924259 c -3.649177,-3.494031 -6.770398,-6.48684 -6.936044,-6.650684 l -0.30118,-0.297897 1.166975,-1.189202 c 5.172889,-5.27142 11.063115,-10.413009 17.136583,-14.958559 1.176242,-0.88033 1.211901,-0.903329 1.283963,-0.828076 0.06109,0.0638 11.14417,15.328836 11.228707,15.465617 0.01495,0.02417 -0.311945,0.293338 -0.746138,0.614329 -3.161836,2.337462 -6.696853,5.237425 -9.739942,7.990191 -1.726569,1.561846 -3.988423,3.724551 -5.422023,5.184343 -0.552405,0.562498 -1.0115,1.022724 -1.020205,1.022724 -0.0087,0 -3.001523,-2.858755 -6.650696,-6.352786 z"
       id="path6" />
    <path
       style="fill:#f2f2f2;stroke:#f2f2f2;stroke-width:0.0745873;stroke-dasharray:none;stroke-dashoffset:1.88976"
       d="m 123.58016,23.365886 c -0.007,-0.05619 -0.38865,-4.253822 -0.8492,-9.328075 -0.46054,-5.0742512 -0.8422,-9.2592138 -0.8481,-9.2999168 l -0.0107,-0.074004 h 13.03493 13.03491 l 6e-5,0.044392 c 7e-5,0.066348 -1.67785,18.7301088 -1.68449,18.7367468 -0.003,0.0031 -0.21377,-0.01152 -0.46806,-0.03259 -2.6806,-0.222053 -5.34752,-0.356 -8.30683,-0.417216 -1.23036,-0.02546 -4.95645,-0.01284 -5.99931,0.02031 -2.4596,0.07818 -4.0565,0.158536 -6.11772,0.307855 -0.76846,0.05567 -1.61639,0.123092 -1.71073,0.136025 -0.0625,0.0086 -0.063,0.008 -0.0747,-0.09354 z"
       id="path13" />
    <path
       style="fill:#f2f2f2;stroke:#f2f2f2;stroke-width:0.0745873;stroke-dasharray:none;stroke-dashoffset:1.88976"
       d="m 121.86332,4.4912126 c -0.007,-0.073258 -0.0171,-0.1655907 -0.0227,-0.2051699 l -0.0102,-0.071962 0.0951,-0.011964 c 0.15767,-0.019836 1.76288,-0.1457431 2.53235,-0.1986391 2.40704,-0.165465 4.28259,-0.253601 7.03537,-0.3306032 1.18955,-0.033282 5.83277,-0.033056 7.04525,3.269e-4 3.25683,0.089678 5.82106,0.2247406 8.6987,0.4581732 0.39928,0.032389 0.73232,0.058889 0.74012,0.058889 0.008,0 0.007,0.097687 -0.004,0.2170801 l -0.0178,0.2170802 h -13.04018 -13.04016 z"
       id="path14" />
    <path
       style="fill:#008000;stroke:#008000;stroke-width:0.115278;stroke-dasharray:none;stroke-dashoffset:1.88976"
       d="m 229.3782,62.57492 c -1.16831,-1.205605 -3.22613,-3.197925 -4.81512,-4.661879 -3.33151,-3.069345 -6.93252,-6.053596 -10.6137,-8.795857 -0.43712,-0.325629 -0.81281,-0.602223 -0.83488,-0.614656 -0.0287,-0.01611 1.57816,-2.255188 5.60684,-7.813152 3.10583,-4.284803 5.65744,-7.794406 5.67028,-7.799117 0.0274,-0.01004 1.35668,0.971708 2.48823,1.837639 3.94062,3.015597 7.64102,6.139364 11.23781,9.486617 1.34201,1.248896 2.04764,1.933807 3.94982,3.833862 l 1.95042,1.948217 -0.10514,0.101587 c -0.0578,0.05588 -3.03545,2.905185 -6.61699,6.331804 -3.58151,3.426623 -6.66404,6.380364 -6.85005,6.563875 l -0.33821,0.333655 z"
       id="path15" />
    <path
       style="fill:#b3b3b3;stroke:#b3b3b3;stroke-width:0.286978;stroke-dasharray:none;stroke-dashoffset:1.88976"
       d="m 168.0158,27.139141 c -4.3102,-1.135118 -9.68486,-2.209247 -14.37452,-2.872765 -1.93219,-0.273376 -5.43616,-0.685409 -5.83726,-0.686406 -0.15414,-2.97e-4 -0.29924,-0.03141 -0.32243,-0.06894 -0.0602,-0.09731 1.63915,-19.0131326 1.71585,-19.1000781 0.0706,-0.080059 1.0623,0.00422 3.59447,0.3055087 6.57471,0.7822869 13.29502,2.0326423 19.58984,3.644816 1.04404,0.2673879 1.98633,0.5121233 2.09399,0.5438556 l 0.19574,0.057701 -2.55221,9.2579718 c -1.40373,5.091884 -2.58521,9.264791 -2.6255,9.273124 -0.0403,0.0083 -0.70539,-0.151316 -1.47797,-0.354779 z"
       id="path16" />
    <path
       style="fill:#b3b3b3;stroke:#b3b3b3;stroke-width:0.286978;stroke-dasharray:none;stroke-dashoffset:1.88976"
       d="m 191.29417,35.525708 c -0.35213,-0.190355 -2.72639,-1.259407 -4.20028,-1.891242 -4.80833,-2.061247 -10.417,-4.072424 -15.03649,-5.391844 -0.71888,-0.205327 -1.3073,-0.40548 -1.30759,-0.444779 -9e-4,-0.133781 5.03379,-18.3791447 5.08916,-18.4423757 0.10166,-0.1160926 4.99195,1.3693217 8.46911,2.5724737 3.38075,1.169796 6.67439,2.437006 9.90344,3.810296 1.71531,0.729513 5.59813,2.479984 5.67787,2.559735 0.0235,0.02347 -0.35572,0.871115 -0.84259,1.883691 -0.48688,1.012581 -2.34988,4.89746 -4.14,8.633068 -1.79012,3.735606 -3.28536,6.800765 -3.32277,6.811462 -0.0375,0.01069 -0.16785,-0.03453 -0.28986,-0.100485 z"
       id="path17" />
    <path
       style="fill:#b3b3b3;stroke:#b3b3b3;stroke-width:0.286978;stroke-dasharray:none;stroke-dashoffset:1.88976"
       d="m 211.10586,47.028217 c -5.16925,-3.645852 -11.28424,-7.296231 -16.91332,-10.09652 -0.78303,-0.389531 -1.42369,-0.742077 -1.42369,-0.783438 0,-0.07006 8.18212,-17.193784 8.25498,-17.276216 0.0488,-0.05514 4.01378,1.960713 6.20962,3.157022 5.4093,2.947027 11.56981,6.800939 15.76065,9.859598 l 0.42286,0.308623 -5.62405,7.761878 c -3.09322,4.26903 -5.64112,7.762632 -5.66201,7.763556 -0.0209,8.93e-4 -0.48214,-0.311601 -1.02504,-0.694503 z"
       id="path18" />
    <path
       style="fill:#ffcc00;stroke:#ffcc00;stroke-width:0.286978;stroke-dasharray:none;stroke-dashoffset:1.88976"
       d="M 74.242718,27.239935 C 72.00849,22.589491 70.137395,18.683891 70.084729,18.560827 l -0.09575,-0.223759 0.589299,-0.271924 c 4.542299,-2.095963 7.719076,-3.427617 11.788916,-4.941722 4.330017,-1.6109 11.676445,-3.950155 11.842649,-3.7709443 0.115187,0.1242124 5.105107,18.4178463 5.040388,18.4786773 -0.03553,0.03341 -0.457566,0.17041 -0.937825,0.304431 -5.535909,1.5449 -12.488747,4.125988 -18.458559,6.852338 l -1.548886,0.70736 z"
       id="path19" />
    <path
       style="fill:#f2f2f2;stroke:#f2f2f2;stroke-width:0.158021;stroke-dasharray:none;stroke-dashoffset:1.88976"
       d="m 52.17991,40.048368 c -3.092881,-4.266687 -5.62821,-7.77911 -5.634059,-7.805386 -0.02194,-0.09845 3.99173,-2.864959 6.470253,-4.459776 4.743898,-3.052484 9.432848,-5.7195 14.57696,-8.291195 l 1.302347,-0.651083 4.149267,8.6422 c 2.282098,4.753212 4.156419,8.670425 4.165156,8.704916 0.01155,0.04564 -0.311527,0.224447 -1.187016,0.656911 -5.819065,2.874426 -11.886549,6.499409 -17.342349,10.361088 -0.470212,0.332819 -0.859927,0.603958 -0.866036,0.602532 -0.0061,-0.0016 -2.541646,-3.493519 -5.634523,-7.760207 z"
       id="path20" />
    <path
       style="fill:#f2f2f2;stroke:#f2f2f2;stroke-width:0.198878;stroke-dasharray:none;stroke-dashoffset:1.88976"
       d="m 215.47951,76.285889 c -0.58849,-0.639007 -2.9602,-2.937435 -4.32624,-4.192553 -2.60269,-2.391346 -5.41708,-4.739377 -8.24441,-6.878262 -0.68011,-0.514507 -1.23149,-0.953627 -1.22531,-0.975821 0.018,-0.06451 10.15836,-14.033262 10.64851,-14.668751 l 0.0926,-0.120233 1.25385,0.939857 c 4.95912,3.717216 9.55922,7.713993 14.08238,12.235425 0.80533,0.805026 1.45687,1.482975 1.44787,1.50656 -0.0118,0.03095 -9.46269,9.093808 -13.04532,12.509754 l -0.18968,0.180851 z"
       id="path21" />
    <path
       style="fill:#008000;stroke:#008000;stroke-width:0.136363;stroke-dasharray:none;stroke-dashoffset:1.88976"
       d="m 158.39938,67.304491 c -0.20937,-0.06613 -2.24572,-0.573157 -3.01263,-0.7501 -3.59278,-0.82893 -7.85889,-1.534771 -11.20268,-1.85352 -0.42405,-0.04043 -0.47,-0.05163 -0.47908,-0.11687 -0.0123,-0.08783 1.82492,-20.516069 1.84704,-20.538182 0.0239,-0.02388 2.01291,0.19084 3.44282,0.371679 4.73499,0.59883 9.46743,1.510024 14.05815,2.706788 0.57512,0.149933 1.04859,0.275591 1.05216,0.279244 0.004,0.0036 -1.23025,4.487524 -2.7418,9.964157 -2.03057,7.357148 -2.7623,9.959274 -2.802,9.964255 -0.0296,0.0037 -0.10245,-0.0086 -0.16198,-0.02744 z"
       id="path22" />
    <path
       style="fill:#ffd42a;stroke:#ffd42a;stroke-width:0.136363;stroke-dasharray:none;stroke-dashoffset:1.88976"
       d="m 127.42274,64.556039 c -0.006,-0.01906 -1.86296,-20.610053 -1.8595,-20.61543 0.005,-0.0071 1.20286,-0.103127 1.93408,-0.154955 0.77089,-0.05465 2.35611,-0.137702 3.60795,-0.189042 1.44524,-0.05927 6.34582,-0.05898 7.81119,5.96e-4 1.92714,0.07819 4.79866,0.253074 5.34088,0.325281 l 0.18151,0.02417 -0.92864,10.300688 c -0.51077,5.66538 -0.92934,10.301217 -0.93017,10.301858 -8.9e-4,5.96e-4 -0.15169,-0.01086 -0.33524,-0.02554 -3.90943,-0.312969 -8.14476,-0.367557 -12.09564,-0.155895 -1.09027,0.05841 -2.46447,0.152478 -2.62479,0.179679 -0.0546,0.0093 -0.10031,0.01319 -0.10163,0.0087 z"
       id="path23" />
    <path
       style="fill:#ffd42a;stroke:#ffd42a;stroke-width:0.136363;stroke-dasharray:none;stroke-dashoffset:1.88976"
       d="m 108.63873,57.377932 c -1.512,-5.481123 -2.74563,-9.969135 -2.74141,-9.973362 0.004,-0.0042 0.47824,-0.130351 1.05336,-0.280284 4.59391,-1.197595 9.37889,-2.1184 14.07036,-2.707651 1.41641,-0.177901 3.40683,-0.394605 3.42821,-0.373233 0.0231,0.0231 1.86266,20.529074 1.84562,20.573483 -0.01,0.02508 -0.27306,0.06624 -0.67845,0.106005 -4.15171,0.407254 -9.18205,1.315925 -13.42651,2.425332 -0.41213,0.107722 -0.7612,0.195751 -0.77571,0.195623 -0.0144,-1.31e-4 -1.26347,-4.484791 -2.77547,-9.965913 z"
       id="path24" />
    <path
       style="fill:#0066ff;stroke:#0066ff;stroke-width:2.94842;stroke-dasharray:none;stroke-dashoffset:1.88976"
       d="m 727.65574,944.51132 c -0.42097,-0.53799 -8.40705,-13.79133 -17.74685,-29.45188 -9.33981,-15.66054 -17.97393,-30.11844 -19.18694,-32.12866 l -2.20547,-3.65494 6.39753,-4.09788 c 10.0684,-6.44923 24.17816,-16.65601 31.83635,-23.02993 3.85941,-3.21218 7.30561,-5.72945 7.65822,-5.59392 0.35261,0.13553 11.93043,13.17269 25.72849,28.97146 l 25.08738,28.72503 -7.63197,6.32139 c -10.00963,8.29074 -22.56518,17.58216 -34.15544,25.2759 -14.16713,9.40429 -14.89076,9.80154 -15.7813,8.66343 z"
       id="path27"
       transform="scale(0.26458333)" />
    <path
       style="fill:#f2f2f2;fill-opacity:1;stroke:#f2f2f2;stroke-width:3;stroke-dashoffset:1.88976;stroke-opacity:1;stroke-dasharray:none"
       d="m 95.574429,50.716118 7.352901,19.486094"
       id="path41"
       sodipodi:nodetypes="cc" />
    <path
       style="fill:none;fill-opacity:1;stroke:#f2f2f2;stroke-width:3;stroke-dashoffset:1.88976;stroke-opacity:1;stroke-dasharray:none"
       d="m 166.90598,70.644115 7.51824,-19.924259"
       id="path42"
       sodipodi:nodetypes="cc" />
    <ellipse
       style="fill:none;fill-opacity:1;stroke:#000000;stroke-width:1.29071;stroke-dashoffset:1.88976;stroke-opacity:1"
       id="path44"
       cx="135"
       cy="154.89056"
       rx="90.075653"
       ry="90.075645" />
    <path
       style="fill:#f2f2f2;fill-opacity:1;stroke:#f2f2f2;stroke-width:0.640197;stroke-dashoffset:1.88976;stroke-opacity:1"
       d="m 497.40051,1006.9953 c -10.22779,-0.3498 -18.80449,-0.9235 -29.38839,-1.9658 -3.35383,-0.3302 -6.15252,-0.6529 -6.2193,-0.7169 -0.0668,-0.064 1.99028,-17.59889 4.57126,-38.96637 l 4.69269,-38.84996 1.10315,0.0979 c 0.60673,0.0539 3.08496,0.28937 5.50718,0.52337 22.16117,2.14087 44.4094,2.08148 67.1255,-0.1792 2.44908,-0.24373 4.496,-0.40002 4.5487,-0.34732 0.10912,0.10911 9.36598,76.46968 9.3725,77.31448 0.003,0.4185 -0.0688,0.5505 -0.30031,0.5505 -0.16752,0 -2.09216,0.1869 -4.27699,0.4153 -8.0611,0.8429 -16.97911,1.502 -26.58537,1.9648 -4.82426,0.2325 -24.90811,0.3385 -30.15062,0.1592 z"
       id="path45"
       transform="scale(0.26458333)" />
    <path
       style="fill:#f2f2f2;fill-opacity:1;stroke:#f2f2f2;stroke-width:0.640197;stroke-dashoffset:1.88976;stroke-opacity:1"
       d="m 562.53824,1003.7403 c -0.13006,-0.4115 -9.39338,-77.6134 -9.32133,-77.68544 0.0398,-0.0398 1.42724,-0.25422 3.08319,-0.47645 23.61361,-3.16904 48.16067,-9.18551 70.32533,-17.2367 1.43509,-0.52129 2.62749,-0.9278 2.64977,-0.90336 0.0738,0.081 27.5031,72.87545 27.55291,73.12253 0.12003,0.59549 -17.58786,6.56394 -30.47417,10.27133 -19.35765,5.56918 -40.55641,10.01749 -59.67477,12.52209 -1.81665,0.238 -3.47619,0.4708 -3.68785,0.5173 -0.22729,0.05 -0.41277,0 -0.45308,-0.1313 z"
       id="path46"
       transform="scale(0.26458333)" />
    <path
       style="fill:#f2f2f2;fill-opacity:1;stroke:#f2f2f2;stroke-width:0.640197;stroke-dashoffset:1.88976;stroke-opacity:1"
       d="m 457.25614,1003.8333 c -0.2329,-0.038 -2.63394,-0.3729 -5.33564,-0.745 -22.19761,-3.0572 -44.6433,-8.07395 -66.65319,-14.89734 -8.09531,-2.50966 -21.68134,-7.2061 -21.68134,-7.49483 0,-0.18437 27.46985,-73.01581 27.59509,-73.16349 0.0558,-0.0657 1.32052,0.32102 2.81057,0.85948 16.32937,5.90096 33.85865,10.72094 51.15345,14.06555 6.26791,1.21213 16.73543,2.89659 20.68664,3.32894 0.57086,0.0625 1.13918,0.17615 1.26293,0.25264 0.18248,0.11278 -0.64975,7.38479 -4.40298,38.47332 -5.00366,41.44603 -4.75461,39.44573 -4.90718,39.41223 -0.0577,-0.013 -0.29544,-0.054 -0.52835,-0.091 z"
       id="path47"
       transform="scale(0.26458333)" />
    <ellipse
       style="fill:none;fill-opacity:1;stroke:#000000;stroke-width:0.995576;stroke-dashoffset:1.88976;stroke-opacity:1"
       id="path43"
       cx="135.00003"
       cy="154.97339"
       rx="112.02872"
       ry="112.02871" />
  </g>
  <g
     inkscape:groupmode="layer"
     id="layer2"
     inkscape:label="Layer 2">
    <ellipse
       style="fill:#dc00dc;fill-opacity:1;stroke:url(#radialGradient96);stroke-width:1.12527;stroke-dasharray:none"
       id="path2"
       cy="154.97345"
       cx="135.00003"
       rx="19.692142"
       ry="19.692135" />
  </g>
</svg>
